<mxfile host="app.diagrams.net" modified="2023-11-23T02:26:07.551Z" agent="Mozilla/5.0 (Windows NT 10.0; Win64; x64) AppleWebKit/537.36 (KHTML, like Gecko) Chrome/119.0.0.0 Safari/537.36" etag="WdrWXzxs-G3pdc2aMxN5" version="22.1.3" type="device">
  <diagram name="페이지-1" id="gjUgZuliDlu7qP9cRjk-">
    <mxGraphModel dx="1843" dy="763" grid="1" gridSize="10" guides="1" tooltips="1" connect="1" arrows="1" fold="1" page="1" pageScale="1" pageWidth="827" pageHeight="1169" background="#FFFFFF" math="0" shadow="0">
      <root>
        <mxCell id="0" />
        <mxCell id="1" parent="0" />
        <mxCell id="hRjFtwrQBs_lgg1Xk_2r-24" style="edgeStyle=orthogonalEdgeStyle;rounded=0;orthogonalLoop=1;jettySize=auto;html=1;exitX=1;exitY=0.5;exitDx=0;exitDy=0;" edge="1" parent="1" source="hRjFtwrQBs_lgg1Xk_2r-5">
          <mxGeometry relative="1" as="geometry">
            <mxPoint x="1070" y="690.2352941176471" as="targetPoint" />
          </mxGeometry>
        </mxCell>
        <mxCell id="hRjFtwrQBs_lgg1Xk_2r-5" value="&lt;font style=&quot;font-size: 20px;&quot;&gt;post&lt;/font&gt;" style="rounded=0;whiteSpace=wrap;html=1;" vertex="1" parent="1">
          <mxGeometry x="980" y="650" width="120" height="80" as="geometry" />
        </mxCell>
        <mxCell id="hRjFtwrQBs_lgg1Xk_2r-41" style="edgeStyle=orthogonalEdgeStyle;rounded=0;orthogonalLoop=1;jettySize=auto;html=1;exitX=0.5;exitY=0;exitDx=0;exitDy=0;strokeColor=#FFFFFF;" edge="1" parent="1" source="hRjFtwrQBs_lgg1Xk_2r-10" target="hRjFtwrQBs_lgg1Xk_2r-11">
          <mxGeometry relative="1" as="geometry">
            <Array as="points">
              <mxPoint x="565" y="622" />
              <mxPoint x="410" y="622" />
            </Array>
          </mxGeometry>
        </mxCell>
        <mxCell id="hRjFtwrQBs_lgg1Xk_2r-10" value="&lt;font style=&quot;font-size: 20px;&quot;&gt;author&lt;/font&gt;" style="rounded=0;whiteSpace=wrap;html=1;" vertex="1" parent="1">
          <mxGeometry x="500" y="650" width="130" height="80" as="geometry" />
        </mxCell>
        <mxCell id="hRjFtwrQBs_lgg1Xk_2r-11" value="&lt;font style=&quot;font-size: 20px;&quot;&gt;&lt;u&gt;id&lt;/u&gt;&lt;/font&gt;" style="ellipse;whiteSpace=wrap;html=1;aspect=fixed;" vertex="1" parent="1">
          <mxGeometry x="340" y="540" width="80" height="80" as="geometry" />
        </mxCell>
        <mxCell id="hRjFtwrQBs_lgg1Xk_2r-12" value="name" style="ellipse;whiteSpace=wrap;html=1;aspect=fixed;fontSize=20;" vertex="1" parent="1">
          <mxGeometry x="340" y="820" width="80" height="80" as="geometry" />
        </mxCell>
        <mxCell id="hRjFtwrQBs_lgg1Xk_2r-13" value="email" style="ellipse;whiteSpace=wrap;html=1;aspect=fixed;fontSize=20;" vertex="1" parent="1">
          <mxGeometry x="440" y="450" width="80" height="80" as="geometry" />
        </mxCell>
        <mxCell id="hRjFtwrQBs_lgg1Xk_2r-14" value="passwd" style="ellipse;whiteSpace=wrap;html=1;aspect=fixed;fontSize=20;direction=south;rotation=0;" vertex="1" parent="1">
          <mxGeometry x="340" y="630" width="80" height="80" as="geometry" />
        </mxCell>
        <mxCell id="hRjFtwrQBs_lgg1Xk_2r-19" value="role" style="ellipse;whiteSpace=wrap;html=1;aspect=fixed;fontSize=20;" vertex="1" parent="1">
          <mxGeometry x="340" y="450" width="80" height="80" as="geometry" />
        </mxCell>
        <mxCell id="hRjFtwrQBs_lgg1Xk_2r-20" value="age" style="ellipse;whiteSpace=wrap;html=1;aspect=fixed;fontSize=20;" vertex="1" parent="1">
          <mxGeometry x="470" y="820" width="80" height="80" as="geometry" />
        </mxCell>
        <mxCell id="hRjFtwrQBs_lgg1Xk_2r-21" value="address" style="ellipse;whiteSpace=wrap;html=1;aspect=fixed;fontSize=20;" vertex="1" parent="1">
          <mxGeometry x="340" y="730" width="80" height="80" as="geometry" />
        </mxCell>
        <mxCell id="hRjFtwrQBs_lgg1Xk_2r-23" value="" style="edgeStyle=entityRelationEdgeStyle;fontSize=20;html=1;endArrow=ERzeroToMany;endFill=1;rounded=0;exitX=1.005;exitY=0.632;exitDx=0;exitDy=0;exitPerimeter=0;fontColor=#FFFFFF;strokeColor=#FFFFFF;entryX=0.016;entryY=0.632;entryDx=0;entryDy=0;entryPerimeter=0;" edge="1" parent="1" source="hRjFtwrQBs_lgg1Xk_2r-25" target="hRjFtwrQBs_lgg1Xk_2r-5">
          <mxGeometry width="100" height="100" relative="1" as="geometry">
            <mxPoint x="830" y="800" as="sourcePoint" />
            <mxPoint x="810" y="700" as="targetPoint" />
            <Array as="points">
              <mxPoint x="720" y="700" />
              <mxPoint x="700" y="720" />
            </Array>
          </mxGeometry>
        </mxCell>
        <mxCell id="hRjFtwrQBs_lgg1Xk_2r-26" value="" style="edgeStyle=entityRelationEdgeStyle;fontSize=20;html=1;endArrow=ERzeroToMany;endFill=1;rounded=0;exitX=1.005;exitY=0.632;exitDx=0;exitDy=0;exitPerimeter=0;fontColor=#FFFFFF;strokeColor=#FFFFFF;entryX=0.016;entryY=0.632;entryDx=0;entryDy=0;entryPerimeter=0;" edge="1" parent="1" source="hRjFtwrQBs_lgg1Xk_2r-10" target="hRjFtwrQBs_lgg1Xk_2r-25">
          <mxGeometry width="100" height="100" relative="1" as="geometry">
            <mxPoint x="641" y="701" as="sourcePoint" />
            <mxPoint x="982" y="701" as="targetPoint" />
            <Array as="points" />
          </mxGeometry>
        </mxCell>
        <mxCell id="hRjFtwrQBs_lgg1Xk_2r-43" value="" style="endArrow=none;html=1;rounded=0;exitX=0.5;exitY=0;exitDx=0;exitDy=0;entryX=1;entryY=1;entryDx=0;entryDy=0;" edge="1" parent="1" source="hRjFtwrQBs_lgg1Xk_2r-10" target="hRjFtwrQBs_lgg1Xk_2r-19">
          <mxGeometry width="50" height="50" relative="1" as="geometry">
            <mxPoint x="860" y="770" as="sourcePoint" />
            <mxPoint x="550" y="600" as="targetPoint" />
          </mxGeometry>
        </mxCell>
        <mxCell id="hRjFtwrQBs_lgg1Xk_2r-44" value="" style="endArrow=none;html=1;rounded=0;exitX=0.5;exitY=0;exitDx=0;exitDy=0;entryX=0.5;entryY=1;entryDx=0;entryDy=0;" edge="1" parent="1" source="hRjFtwrQBs_lgg1Xk_2r-10" target="hRjFtwrQBs_lgg1Xk_2r-13">
          <mxGeometry width="50" height="50" relative="1" as="geometry">
            <mxPoint x="860" y="770" as="sourcePoint" />
            <mxPoint x="910" y="720" as="targetPoint" />
          </mxGeometry>
        </mxCell>
        <mxCell id="hRjFtwrQBs_lgg1Xk_2r-45" value="" style="endArrow=none;html=1;rounded=0;exitX=0;exitY=0.5;exitDx=0;exitDy=0;entryX=0.5;entryY=0;entryDx=0;entryDy=0;" edge="1" parent="1" source="hRjFtwrQBs_lgg1Xk_2r-10" target="hRjFtwrQBs_lgg1Xk_2r-14">
          <mxGeometry width="50" height="50" relative="1" as="geometry">
            <mxPoint x="860" y="770" as="sourcePoint" />
            <mxPoint x="910" y="720" as="targetPoint" />
          </mxGeometry>
        </mxCell>
        <mxCell id="hRjFtwrQBs_lgg1Xk_2r-46" value="" style="endArrow=none;html=1;rounded=0;exitX=0.5;exitY=0;exitDx=0;exitDy=0;entryX=1;entryY=1;entryDx=0;entryDy=0;" edge="1" parent="1" source="hRjFtwrQBs_lgg1Xk_2r-10" target="hRjFtwrQBs_lgg1Xk_2r-11">
          <mxGeometry width="50" height="50" relative="1" as="geometry">
            <mxPoint x="860" y="770" as="sourcePoint" />
            <mxPoint x="910" y="720" as="targetPoint" />
          </mxGeometry>
        </mxCell>
        <mxCell id="hRjFtwrQBs_lgg1Xk_2r-47" value="" style="endArrow=none;html=1;rounded=0;entryX=0;entryY=0.5;entryDx=0;entryDy=0;exitX=1;exitY=0;exitDx=0;exitDy=0;" edge="1" parent="1" source="hRjFtwrQBs_lgg1Xk_2r-12" target="hRjFtwrQBs_lgg1Xk_2r-10">
          <mxGeometry width="50" height="50" relative="1" as="geometry">
            <mxPoint x="860" y="770" as="sourcePoint" />
            <mxPoint x="910" y="720" as="targetPoint" />
          </mxGeometry>
        </mxCell>
        <mxCell id="hRjFtwrQBs_lgg1Xk_2r-48" value="" style="endArrow=none;html=1;rounded=0;exitX=1;exitY=0.5;exitDx=0;exitDy=0;entryX=0;entryY=0.5;entryDx=0;entryDy=0;" edge="1" parent="1" source="hRjFtwrQBs_lgg1Xk_2r-21" target="hRjFtwrQBs_lgg1Xk_2r-10">
          <mxGeometry width="50" height="50" relative="1" as="geometry">
            <mxPoint x="860" y="770" as="sourcePoint" />
            <mxPoint x="910" y="720" as="targetPoint" />
          </mxGeometry>
        </mxCell>
        <mxCell id="hRjFtwrQBs_lgg1Xk_2r-49" value="" style="endArrow=none;html=1;rounded=0;exitX=0.25;exitY=1;exitDx=0;exitDy=0;entryX=0.5;entryY=0;entryDx=0;entryDy=0;" edge="1" parent="1" source="hRjFtwrQBs_lgg1Xk_2r-10" target="hRjFtwrQBs_lgg1Xk_2r-20">
          <mxGeometry width="50" height="50" relative="1" as="geometry">
            <mxPoint x="860" y="770" as="sourcePoint" />
            <mxPoint x="910" y="720" as="targetPoint" />
          </mxGeometry>
        </mxCell>
        <mxCell id="hRjFtwrQBs_lgg1Xk_2r-51" value="" style="edgeStyle=entityRelationEdgeStyle;fontSize=12;html=1;endArrow=ERzeroToMany;endFill=1;rounded=0;entryX=0;entryY=0.5;entryDx=0;entryDy=0;" edge="1" parent="1" source="hRjFtwrQBs_lgg1Xk_2r-25" target="hRjFtwrQBs_lgg1Xk_2r-5">
          <mxGeometry width="100" height="100" relative="1" as="geometry">
            <mxPoint x="830" y="790" as="sourcePoint" />
            <mxPoint x="930" y="690" as="targetPoint" />
          </mxGeometry>
        </mxCell>
        <mxCell id="hRjFtwrQBs_lgg1Xk_2r-25" value="&lt;font style=&quot;font-size: 20px;&quot;&gt;create post&lt;/font&gt;" style="rhombus;whiteSpace=wrap;html=1;" vertex="1" parent="1">
          <mxGeometry x="710" y="890" width="190" height="110" as="geometry" />
        </mxCell>
        <mxCell id="hRjFtwrQBs_lgg1Xk_2r-53" value="&lt;font style=&quot;font-size: 20px;&quot;&gt;&lt;u&gt;id&lt;/u&gt;&lt;/font&gt;" style="ellipse;whiteSpace=wrap;html=1;aspect=fixed;" vertex="1" parent="1">
          <mxGeometry x="1050" y="530" width="80" height="80" as="geometry" />
        </mxCell>
        <mxCell id="hRjFtwrQBs_lgg1Xk_2r-54" value="" style="edgeStyle=entityRelationEdgeStyle;fontSize=12;html=1;endArrow=ERzeroToOne;endFill=1;rounded=0;entryX=1;entryY=0.5;entryDx=0;entryDy=0;exitX=0;exitY=0.5;exitDx=0;exitDy=0;" edge="1" parent="1" source="hRjFtwrQBs_lgg1Xk_2r-25" target="hRjFtwrQBs_lgg1Xk_2r-10">
          <mxGeometry width="100" height="100" relative="1" as="geometry">
            <mxPoint x="680" y="710" as="sourcePoint" />
            <mxPoint x="930" y="720" as="targetPoint" />
          </mxGeometry>
        </mxCell>
        <mxCell id="hRjFtwrQBs_lgg1Xk_2r-55" value="&lt;span style=&quot;font-size: 20px;&quot;&gt;title&lt;/span&gt;" style="ellipse;whiteSpace=wrap;html=1;aspect=fixed;" vertex="1" parent="1">
          <mxGeometry x="950" y="530" width="80" height="80" as="geometry" />
        </mxCell>
        <mxCell id="hRjFtwrQBs_lgg1Xk_2r-56" value="&lt;span style=&quot;font-size: 20px;&quot;&gt;content&lt;/span&gt;" style="ellipse;whiteSpace=wrap;html=1;aspect=fixed;" vertex="1" parent="1">
          <mxGeometry x="1147" y="630" width="80" height="80" as="geometry" />
        </mxCell>
        <mxCell id="hRjFtwrQBs_lgg1Xk_2r-57" value="&lt;span style=&quot;font-size: 20px;&quot;&gt;author_id&lt;/span&gt;" style="ellipse;whiteSpace=wrap;html=1;aspect=fixed;" vertex="1" parent="1">
          <mxGeometry x="1147" y="530" width="80" height="80" as="geometry" />
        </mxCell>
        <mxCell id="hRjFtwrQBs_lgg1Xk_2r-58" value="&lt;span style=&quot;font-size: 20px;&quot;&gt;price&lt;/span&gt;" style="ellipse;whiteSpace=wrap;html=1;aspect=fixed;" vertex="1" parent="1">
          <mxGeometry x="1140" y="740" width="80" height="80" as="geometry" />
        </mxCell>
        <mxCell id="hRjFtwrQBs_lgg1Xk_2r-59" value="&lt;span style=&quot;font-size: 20px;&quot;&gt;created&lt;br&gt;_time&lt;br&gt;&lt;/span&gt;" style="ellipse;whiteSpace=wrap;html=1;aspect=fixed;" vertex="1" parent="1">
          <mxGeometry x="1010" y="750" width="80" height="80" as="geometry" />
        </mxCell>
      </root>
    </mxGraphModel>
  </diagram>
</mxfile>
